<?xml version="1.0" encoding="UTF-8" standalone="no"?>
<!-- Generator: Adobe Illustrator 21.0.0, SVG Export Plug-In . SVG Version: 6.00 Build 0)  -->

<svg width="130" height="127" viewBox="0 0 130 127" fill="none" xmlns="http://www.w3.org/2000/svg">
<path d="M60.661 0.990312C63.4029 -0.330103 66.5968 -0.330105 69.3387 0.99031L113.044 22.0375C115.786 23.358 117.777 25.8551 118.454 28.822L129.248 76.1147C129.926 79.0817 129.215 82.1955 127.317 84.5748L97.0726 122.501C95.1752 124.88 92.2976 126.266 89.2543 126.266H40.7454C37.7022 126.266 34.8245 124.88 32.9271 122.501L2.68227 84.5748C0.784833 82.1955 0.074113 79.0817 0.751299 76.1147L11.5455 28.822C12.2227 25.8551 14.2141 23.358 16.956 22.0375L60.661 0.990312Z" fill="#416CDE"/>
<path d="M95.0863 28.9524C80.7189 31.9334 66.8816 37.5787 54.5506 44.693C54.308 44.8317 54.0567 44.979 53.814 45.1263C53.5194 45.0137 53.2075 44.9183 52.9042 44.823C51.9163 44.5197 50.9111 44.2858 49.8712 44.1211C48.6234 43.9045 47.3496 43.8005 46.0411 43.8005C40.5212 43.8005 35.4432 45.7069 31.4397 48.9305C30.9284 49.3378 30.8417 50.109 31.2924 50.5942C32.4362 51.8507 33.4501 53.2372 34.2906 54.7277C34.8886 54.0604 38.0775 52.1194 38.2768 51.9981L36.0497 55.1696C35.7551 55.6116 35.4778 56.0622 35.2265 56.5215C35.4172 56.9288 35.5905 57.3447 35.7551 57.7693C36.3703 59.3291 36.821 60.9842 37.0896 62.6913C37.1329 63.0032 37.0463 63.3152 36.8643 63.5665C34.8279 66.2615 33.3721 69.4071 32.6615 72.83C32.3409 74.3724 32.1763 75.9669 32.1763 77.596C32.1763 78.6618 32.2456 79.7191 32.3929 80.7503C32.7048 83.1246 33.3808 85.3776 34.3513 87.466C35.0792 89.0258 35.9718 90.4903 37.0116 91.8334C38.5021 93.7832 40.2958 95.4816 42.3149 96.8768C44.0566 98.0726 45.9631 99.0432 47.9995 99.7277C50.3738 100.551 52.9215 100.993 55.5732 100.993C59.1173 100.993 62.4709 100.204 65.4865 98.7919C65.8504 98.6272 66.2058 98.4452 66.561 98.2546C67.107 97.96 67.7915 98.1506 68.0948 98.6878C70.5385 103.012 74.8799 106.123 79.9839 106.877C80.7898 106.998 81.6044 107.059 82.4363 107.059C83.1121 107.059 83.5628 106.513 83.5628 105.924C83.5628 105.655 83.4675 105.369 83.2508 105.135C81.7516 103.489 80.5818 101.53 79.8453 99.3638C79.6806 98.8872 79.542 98.4019 79.4293 97.8993C79.126 96.6688 78.9701 95.3863 78.9701 94.0605C78.9701 91.5908 79.516 89.2598 80.4865 87.1627V87.154C82.3929 83.0206 85.9804 79.8057 90.3652 78.3932C91.3097 78.0899 91.4917 76.8161 90.6338 76.3135C90.2265 76.0882 89.6719 75.8369 89.1 75.6029C87.3583 74.8924 85.4085 74.8924 83.6841 75.6202C83.1035 75.8716 82.5316 76.1315 81.9683 76.4088V76.4175C80.9198 76.9287 79.9146 77.5007 78.9527 78.1246V78.1333C77.4969 79.0778 76.1277 80.135 74.8626 81.3048C74.8626 81.3048 74.8626 81.3135 74.8539 81.3135V81.3222C73.4241 82.6393 72.1243 84.0951 70.9718 85.6636C70.5818 86.1922 70.2092 86.7381 69.8452 87.3014V87.3101C69.2907 88.1679 68.7881 89.0605 68.3288 89.979C68.2854 90.0744 68.2248 90.1523 68.1641 90.2303C67.5489 90.9322 66.8383 91.5302 66.0324 91.9894C64.7499 92.7607 63.2421 93.1939 61.639 93.1939C60.9631 93.1939 60.3045 93.1159 59.6719 92.9686L59.6633 92.9599C58.8227 92.7693 58.0341 92.4487 57.3063 92.0241C56.9943 91.8508 56.6997 91.6514 56.4137 91.4348C55.5645 90.8022 54.8366 90.005 54.2733 89.0952C53.6321 88.0726 53.2075 86.9028 53.0515 85.6549C52.9995 85.2823 52.9735 84.9097 52.9735 84.5284C52.9735 84.3118 52.9822 84.1038 52.9995 83.8958V83.8872C53.3201 79.4504 58.5801 77.362 61.4917 75.8629C61.587 76.6601 61.6303 77.466 61.6303 78.2892V78.2979C61.639 78.3586 61.639 78.4019 61.639 78.4625C61.639 79.6671 61.5523 80.8456 61.3704 81.9981C61.2057 83.1073 62.6095 83.7485 63.3721 82.9166C64.7846 81.3568 65.9977 79.5977 66.951 77.6913C67.6269 76.3568 68.1728 74.953 68.5801 73.4886C68.6581 73.2286 68.814 72.9946 69.0394 72.8386C71.587 71.0969 74.1953 69.4331 76.8557 67.8646C77.5402 67.4573 78.2248 67.0587 78.9181 66.6688C80.8938 65.5422 82.9042 64.4677 84.9492 63.4452C86.9596 62.4313 88.9961 61.4782 91.0585 60.5682C91.795 60.2476 91.9857 59.2944 91.4311 58.7225C91.3097 58.5925 91.1884 58.4625 91.0585 58.3585L92.3756 56.6341C92.5229 56.4521 92.3409 56.1922 92.1156 56.2615L89.6027 57.0241H89.594C89.282 56.7381 88.9614 56.4868 88.6234 56.2442L89.3687 53.7138C89.438 53.4972 89.178 53.3152 88.9961 53.4626L86.9163 55.0743C86.5783 54.875 86.2404 54.6757 85.9025 54.4851L86.2751 51.9027C86.3097 51.6688 86.0324 51.5301 85.8678 51.7034L84.0654 53.5752C83.6234 53.3845 83.1815 53.2026 82.7309 53.0379L82.0896 50.4816C82.0289 50.2563 81.717 50.239 81.6304 50.4556L80.8505 52.44C79.6979 52.1194 78.5021 51.8941 77.2803 51.7554C81.5957 48.9565 86.0844 46.4001 90.7205 44.0951C91.8037 43.5578 92.6789 42.6827 93.1988 41.5908C94.5767 38.7225 96.0498 35.9062 97.6183 33.1506C98.7274 31.2008 97.2787 28.4931 95.0863 28.9524ZM64.678 53.3877C62.0412 52.6969 60.5708 50.0809 61.3866 47.4729C61.3867 47.4728 61.5382 47.3886 61.5382 47.3886C62.7297 49.3071 63.8264 51.2799 64.8295 53.3034C64.8295 53.3034 64.678 53.3876 64.678 53.3877ZM67.9331 51.5763C65.2963 50.8856 63.8259 48.2696 64.6417 45.6615C64.6418 45.6615 64.7932 45.5773 64.7932 45.5773C65.9847 47.4959 67.0815 49.4686 68.0846 51.492C68.0845 51.4921 67.9331 51.5763 67.9331 51.5763ZM71.1212 49.8023C68.4844 49.1116 67.014 46.4956 67.8299 43.8875C67.8299 43.8875 67.9813 43.8032 67.9813 43.8032C69.1728 45.7218 70.2696 47.6946 71.2727 49.718C71.2726 49.718 71.1212 49.8023 71.1212 49.8023ZM81.5053 40.282C80.7188 40.282 80.0812 39.6444 80.0812 38.858C80.0812 38.0715 80.7188 37.4339 81.5053 37.4339C82.2918 37.4339 82.9294 38.0715 82.9294 38.858C82.9294 39.6444 82.2918 40.282 81.5053 40.282ZM95.0509 34.1695L94.7414 34.7055C94.5485 35.0397 94.1212 35.1541 93.7871 34.9612C93.4529 34.7683 93.3384 34.341 93.5313 34.0069L93.8408 33.4709C94.0337 33.1367 94.461 33.0222 94.7951 33.2152C95.1293 33.4081 95.2438 33.8354 95.0509 34.1695Z" fill="white"/>
</svg>
